<?xml version="1.0" encoding="utf-8"?>
<!-- Generator: Adobe Illustrator 24.2.1, SVG Export Plug-In . SVG Version: 6.00 Build 0)  -->
<svg version="1.1" id="Camada_1" xmlns="http://www.w3.org/2000/svg" xmlns:xlink="http://www.w3.org/1999/xlink" x="0px" y="0px"
	 viewBox="0 0 284.2 75.4" style="enable-background:new 0 0 284.2 75.4;" xml:space="preserve">
<style type="text/css">
	.st0{fill:#FFFFFF;}
</style>
<g>
	<g>
		<path class="st0" d="M0.4,33.3c2.3,0,3.9-0.7,4.9-2c1-1.3,1.5-3,1.5-5.1V14.7c0-2.2,0.3-4.1,0.8-5.8c0.6-1.7,1.5-3.1,2.8-4.3
			c1.3-1.2,3-2,5.1-2.6c2.1-0.6,4.8-0.9,8-0.9h1.5v9h-1.9c-2.3,0-3.8,0.5-4.6,1.5c-0.8,1-1.2,2.6-1.2,4.7v10c0,2.6-0.4,4.8-1.1,6.6
			c-0.7,1.8-2.1,3.4-4.2,4.7c2.1,1.3,3.5,2.9,4.2,4.7c0.7,1.8,1.1,4,1.1,6.6v10c0,2.1,0.4,3.7,1.2,4.7c0.8,1,2.3,1.5,4.6,1.5h1.9v9
			h-1.5c-3.2,0-5.8-0.3-8-0.9c-2.1-0.6-3.9-1.5-5.1-2.6c-1.3-1.2-2.2-2.6-2.8-4.3c-0.6-1.7-0.8-3.6-0.8-5.8V49.3
			c0-2.1-0.5-3.8-1.5-5.1c-1-1.3-2.6-2-4.9-2V33.3z"/>
		<path class="st0" d="M30.9,48.4c-2-3.3-3.2-6.6-3.6-9.7c-0.5-3.1-0.3-6,0.3-8.6c0.7-2.7,1.9-5.1,3.5-7.2c1.7-2.1,3.6-3.9,5.9-5.2
			c5.3-3.2,10.5-4,15.6-2.6c5,1.4,9.4,5.3,13.2,11.7c0.4,0.6,0.7,1.3,1.1,2.1c0.4,0.8,0.7,1.5,1,2.1L43.8,45.2
			c1.5,2.1,3.6,3.2,6.2,3.4c2.6,0.2,5.4-0.6,8.4-2.4c2-1.2,3.8-2.5,5.4-3.9c1.7-1.5,2.9-2.8,3.8-4.1l6.5,7.8c-0.4,0.6-1,1.4-1.8,2.2
			c-0.8,0.9-1.7,1.7-2.7,2.6c-1,0.9-2.2,1.8-3.4,2.8c-1.3,0.9-2.5,1.8-3.9,2.6c-3.4,2-6.6,3.2-9.7,3.7c-3.1,0.5-6,0.3-8.7-0.4
			c-2.7-0.8-5.1-2.1-7.3-4C34.5,53.5,32.6,51.2,30.9,48.4z M53.6,29.6c-0.6-0.9-1.3-1.7-2-2.4c-0.8-0.7-1.6-1.2-2.6-1.6
			c-0.9-0.3-2-0.5-3-0.4c-1.1,0.1-2.3,0.5-3.5,1.2c-1.2,0.7-2.1,1.5-2.7,2.4c-0.6,0.9-1,1.9-1.2,2.9c-0.2,1-0.2,2,0.1,3.1
			c0.2,1.1,0.5,2.1,0.9,3.1L53.6,29.6z"/>
		<path class="st0" d="M104.6,61.4c-8.5,0-15-2.4-19.5-7.1c-4.5-4.7-6.7-11.5-6.7-20.2c0-4.3,0.7-8.2,2-11.6
			c1.4-3.4,3.2-6.3,5.6-8.6c2.4-2.3,5.2-4.1,8.5-5.3c3.3-1.2,6.8-1.8,10.7-1.8c2.2,0,4.2,0.2,6,0.5c1.8,0.3,3.4,0.7,4.8,1.1
			c1.4,0.4,2.5,0.9,3.4,1.3c0.9,0.5,1.6,0.8,2,1.1l-3.4,9.5c-1.6-0.9-3.5-1.6-5.6-2.2c-2.1-0.6-4.6-0.9-7.3-0.9
			c-1.8,0-3.6,0.3-5.3,0.9c-1.7,0.6-3.3,1.6-4.6,2.9c-1.3,1.3-2.4,3.1-3.2,5.2c-0.8,2.1-1.2,4.7-1.2,7.7c0,2.4,0.3,4.7,0.8,6.8
			c0.5,2.1,1.4,3.9,2.6,5.4c1.2,1.5,2.7,2.7,4.6,3.6c1.9,0.9,4.2,1.3,7,1.3c1.7,0,3.2-0.1,4.6-0.3c1.4-0.2,2.6-0.4,3.6-0.7
			c1.1-0.3,2-0.6,2.8-0.9c0.8-0.4,1.5-0.7,2.2-1l3.2,9.4c-1.7,1-4,1.9-7,2.7C112.1,61,108.6,61.4,104.6,61.4z"/>
		<path class="st0" d="M165.2,40.4c0,3.1-0.5,6-1.4,8.6c-0.9,2.6-2.2,4.8-3.9,6.6c-1.7,1.8-3.8,3.3-6.2,4.3c-2.4,1-5.1,1.5-8,1.5
			c-2.9,0-5.6-0.5-8-1.5c-2.4-1-4.4-2.4-6.2-4.3c-1.7-1.8-3-4.1-4-6.6c-1-2.6-1.4-5.5-1.4-8.6c0-3.1,0.5-6,1.5-8.5
			c1-2.6,2.3-4.8,4.1-6.6c1.7-1.8,3.8-3.2,6.2-4.2c2.4-1,5-1.5,7.8-1.5c2.9,0,5.5,0.5,7.9,1.5c2.4,1,4.4,2.4,6.2,4.2
			c1.7,1.8,3,4,4,6.6C164.7,34.4,165.2,37.2,165.2,40.4z M153.7,40.4c0-3.5-0.7-6.2-2.1-8.2c-1.4-2-3.4-3-5.9-3c-2.6,0-4.6,1-6,3
			c-1.4,2-2.1,4.7-2.1,8.2c0,3.5,0.7,6.2,2.1,8.3c1.4,2,3.4,3.1,6,3.1c2.6,0,4.5-1,5.9-3.1C153,46.6,153.7,43.8,153.7,40.4z"/>
		<path class="st0" d="M208.9,59c-1,0.3-2.2,0.6-3.5,0.9c-1.3,0.3-2.7,0.5-4.1,0.7c-1.4,0.2-2.9,0.4-4.4,0.5
			c-1.5,0.1-2.9,0.2-4.3,0.2c-3.3,0-6.2-0.5-8.8-1.4c-2.6-1-4.7-2.3-6.5-4.1c-1.8-1.8-3.1-4-4-6.5c-0.9-2.5-1.4-5.4-1.4-8.6
			c0-3.2,0.4-6.1,1.2-8.7c0.8-2.6,2-4.8,3.5-6.6c1.5-1.8,3.4-3.2,5.6-4.2c2.2-1,4.7-1.4,7.5-1.4c1.6,0,3,0.2,4.2,0.5
			c1.2,0.3,2.5,0.7,3.7,1.3v-18l11.3-1.8V59z M183.5,40.1c0,3.5,0.8,6.3,2.3,8.4c1.6,2.1,3.9,3.2,7,3.2c1,0,1.9,0,2.8-0.1
			c0.9-0.1,1.6-0.2,2.1-0.3V30.8c-0.7-0.5-1.6-0.8-2.8-1.1c-1.1-0.3-2.3-0.5-3.4-0.5C186.1,29.3,183.5,32.9,183.5,40.1z"/>
		<path class="st0" d="M217.6,40.7c0-3.5,0.5-6.6,1.6-9.3c1.1-2.6,2.5-4.8,4.3-6.6c1.8-1.8,3.8-3.1,6.1-4c2.3-0.9,4.6-1.4,7.1-1.4
			c5.6,0,10.1,1.7,13.4,5.2c3.3,3.5,4.9,8.5,4.9,15.2c0,0.7,0,1.4-0.1,2.2c-0.1,0.8-0.1,1.5-0.2,2.1h-25.5c0.3,2.3,1.3,4.2,3.2,5.5
			c1.9,1.4,4.5,2,7.7,2c2.1,0,4.1-0.2,6.1-0.6c2-0.4,3.6-0.8,4.9-1.4l1.5,9.1c-0.6,0.3-1.4,0.6-2.4,0.9c-1,0.3-2.1,0.6-3.4,0.8
			c-1.2,0.2-2.6,0.4-4,0.6c-1.4,0.2-2.8,0.2-4.2,0.2c-3.6,0-6.7-0.5-9.3-1.6c-2.6-1.1-4.8-2.5-6.6-4.3c-1.7-1.8-3-4-3.9-6.5
			C218,46.4,217.6,43.7,217.6,40.7z M244.1,36.4c-0.1-1-0.2-1.9-0.5-2.8c-0.3-0.9-0.7-1.7-1.3-2.4c-0.6-0.7-1.3-1.3-2.2-1.7
			c-0.9-0.5-2-0.7-3.3-0.7c-1.3,0-2.3,0.2-3.2,0.6c-0.9,0.4-1.7,1-2.3,1.7c-0.6,0.7-1.1,1.5-1.4,2.5c-0.3,0.9-0.6,1.9-0.7,2.8H244.1
			z"/>
		<path class="st0" d="M283.7,42.2c-2.3,0-3.9,0.7-4.9,2c-1,1.3-1.5,3-1.5,5.1v11.4c0,2.2-0.3,4.1-0.8,5.8c-0.6,1.7-1.5,3.1-2.8,4.3
			c-1.3,1.2-3,2-5.1,2.6c-2.1,0.6-4.8,0.9-8,0.9h-1.5v-9h1.9c2.3,0,3.8-0.5,4.6-1.5c0.8-1,1.2-2.6,1.2-4.7v-10
			c0-2.6,0.4-4.8,1.1-6.6c0.7-1.8,2.1-3.4,4.2-4.7c-2.1-1.3-3.5-2.9-4.2-4.7c-0.7-1.8-1.1-4-1.1-6.6v-10c0-2.1-0.4-3.7-1.2-4.7
			c-0.8-1-2.3-1.5-4.6-1.5h-1.9v-9h1.5c3.2,0,5.8,0.3,8,0.9c2.1,0.6,3.9,1.5,5.1,2.6c1.3,1.2,2.2,2.6,2.8,4.3
			c0.6,1.7,0.8,3.6,0.8,5.8v11.4c0,2.1,0.5,3.8,1.5,5.1c1,1.3,2.6,2,4.9,2V42.2z"/>
		<circle class="st0" cx="145.6" cy="40.4" r="4.3"/>
		<path class="st0" d="M90.9,68.4"/>
		<g>
			<line class="st0" x1="82.8" y1="66.1" x2="251.8" y2="66.1"/>
			<path class="st0" d="M247.9,67.1c-1,0-1.5-0.4-2-0.8c-0.5-0.4-0.9-0.7-1.8-0.7c-0.9,0-1.3,0.4-1.8,0.7c-0.5,0.4-1,0.8-2,0.8
				s-1.5-0.4-2-0.8c-0.5-0.4-0.9-0.7-1.8-0.7c-0.9,0-1.3,0.4-1.8,0.7c-0.5,0.4-1,0.8-2,0.8c-1,0-1.5-0.4-2-0.8
				c-0.5-0.4-0.9-0.7-1.8-0.7c-0.9,0-1.3,0.4-1.8,0.7c-0.5,0.4-1,0.8-2,0.8c-1,0-1.5-0.4-2-0.8c-0.5-0.4-0.9-0.7-1.8-0.7
				s-1.3,0.4-1.8,0.7c-0.5,0.4-1,0.8-2,0.8s-1.5-0.4-2-0.8c-0.5-0.4-0.9-0.7-1.8-0.7c-0.9,0-1.3,0.4-1.8,0.7c-0.5,0.4-1,0.8-2,0.8
				s-1.5-0.4-2-0.8c-0.5-0.4-0.9-0.7-1.8-0.7c-0.9,0-1.3,0.4-1.8,0.7c-0.5,0.4-1,0.8-2,0.8s-1.5-0.4-2-0.8c-0.5-0.4-0.9-0.7-1.8-0.7
				s-1.3,0.4-1.8,0.7c-0.5,0.4-1,0.8-2,0.8c-1,0-1.5-0.4-2-0.8c-0.5-0.4-0.9-0.7-1.8-0.7s-1.3,0.4-1.8,0.7c-0.5,0.4-1,0.8-2,0.8
				c-1,0-1.5-0.4-2-0.8c-0.5-0.4-0.9-0.7-1.8-0.7s-1.3,0.4-1.8,0.7c-0.5,0.4-1,0.8-2,0.8s-1.5-0.4-2-0.8c-0.5-0.4-0.9-0.7-1.8-0.7
				s-1.3,0.4-1.8,0.7c-0.5,0.4-1,0.8-2,0.8c-1,0-1.5-0.4-2-0.8c-0.5-0.4-0.9-0.7-1.8-0.7c-0.9,0-1.3,0.4-1.8,0.7
				c-0.5,0.4-1,0.8-2,0.8s-1.5-0.4-2-0.8c-0.5-0.4-0.9-0.7-1.8-0.7s-1.3,0.4-1.8,0.7c-0.5,0.4-1,0.8-2,0.8s-1.5-0.4-2-0.8
				c-0.5-0.4-0.9-0.7-1.8-0.7s-1.3,0.4-1.8,0.7c-0.5,0.4-1,0.8-2,0.8c-1,0-1.5-0.4-2-0.8c-0.5-0.4-0.9-0.7-1.8-0.7s-1.3,0.4-1.8,0.7
				c-0.5,0.4-1,0.8-2,0.8c-1,0-1.5-0.4-2-0.8c-0.5-0.4-0.9-0.7-1.8-0.7c-0.9,0-1.3,0.4-1.8,0.7c-0.5,0.4-1,0.8-2,0.8
				c-1,0-1.5-0.4-2-0.8c-0.5-0.4-0.9-0.7-1.8-0.7c-0.9,0-1.3,0.4-1.8,0.7c-0.5,0.4-1,0.8-2,0.8c-1,0-1.5-0.4-2-0.8
				c-0.5-0.4-0.9-0.7-1.8-0.7s-1.3,0.4-1.8,0.7c-0.5,0.4-1,0.8-2,0.8c-1,0-1.5-0.4-2-0.8c-0.5-0.4-0.9-0.7-1.8-0.7s-1.3,0.4-1.8,0.7
				c-0.5,0.4-1,0.8-2,0.8c-1,0-1.5-0.4-2-0.8c-0.5-0.4-0.9-0.7-1.8-0.7s-1.3,0.4-1.8,0.7c-0.5,0.4-1,0.8-2,0.8c-1,0-1.5-0.4-2-0.8
				c-0.5-0.4-0.9-0.7-1.8-0.7s-1.3,0.4-1.8,0.7c-0.5,0.4-1,0.8-2,0.8s-1.5-0.4-2-0.8c-0.5-0.4-0.9-0.7-1.8-0.7s-1.3,0.4-1.8,0.7
				c-0.5,0.4-1,0.8-2,0.8c-1,0-1.5-0.4-2-0.8c-0.5-0.4-0.9-0.7-1.8-0.7v-0.4c1,0,1.5,0.4,2,0.8c0.5,0.4,0.9,0.7,1.8,0.7
				c0.9,0,1.3-0.4,1.8-0.7c0.5-0.4,1-0.8,2-0.8s1.5,0.4,2,0.8c0.5,0.4,0.9,0.7,1.8,0.7c0.9,0,1.3-0.4,1.8-0.7c0.5-0.4,1-0.8,2-0.8
				c1,0,1.5,0.4,2,0.8c0.5,0.4,0.9,0.7,1.8,0.7c0.9,0,1.3-0.4,1.8-0.7c0.5-0.4,1-0.8,2-0.8s1.5,0.4,2,0.8c0.5,0.4,0.9,0.7,1.8,0.7
				c0.9,0,1.3-0.4,1.8-0.7c0.5-0.4,1-0.8,2-0.8s1.5,0.4,2,0.8c0.5,0.4,0.9,0.7,1.8,0.7c0.9,0,1.3-0.4,1.8-0.7c0.5-0.4,1-0.8,2-0.8
				s1.5,0.4,2,0.8c0.5,0.4,0.9,0.7,1.8,0.7s1.3-0.4,1.8-0.7c0.5-0.4,1-0.8,2-0.8c1,0,1.5,0.4,2,0.8c0.5,0.4,0.9,0.7,1.8,0.7
				c0.9,0,1.3-0.4,1.8-0.7c0.5-0.4,1-0.8,2-0.8c1,0,1.5,0.4,2,0.8c0.5,0.4,0.9,0.7,1.8,0.7c0.9,0,1.3-0.4,1.8-0.7
				c0.5-0.4,1-0.8,2-0.8c1,0,1.5,0.4,2,0.8c0.5,0.4,0.9,0.7,1.8,0.7c0.9,0,1.3-0.4,1.8-0.7c0.5-0.4,1-0.8,2-0.8s1.5,0.4,2,0.8
				c0.5,0.4,0.9,0.7,1.8,0.7s1.3-0.4,1.8-0.7c0.5-0.4,1-0.8,2-0.8s1.5,0.4,2,0.8c0.5,0.4,0.9,0.7,1.8,0.7s1.3-0.4,1.8-0.7
				c0.5-0.4,1-0.8,2-0.8c1,0,1.5,0.4,2,0.8c0.5,0.4,0.9,0.7,1.8,0.7c0.9,0,1.3-0.4,1.8-0.7c0.5-0.4,1-0.8,2-0.8s1.5,0.4,2,0.8
				c0.5,0.4,0.9,0.7,1.8,0.7c0.9,0,1.3-0.4,1.8-0.7c0.5-0.4,1-0.8,2-0.8s1.5,0.4,2,0.8c0.5,0.4,0.9,0.7,1.8,0.7s1.3-0.4,1.8-0.7
				c0.5-0.4,1-0.8,2-0.8s1.5,0.4,2,0.8c0.5,0.4,0.9,0.7,1.8,0.7s1.3-0.4,1.8-0.7c0.5-0.4,1-0.8,2-0.8c1,0,1.5,0.4,2,0.8
				c0.5,0.4,0.9,0.7,1.8,0.7s1.3-0.4,1.8-0.7c0.5-0.4,1-0.8,2-0.8s1.5,0.4,2,0.8c0.5,0.4,0.9,0.7,1.8,0.7c0.9,0,1.3-0.4,1.8-0.7
				c0.5-0.4,1-0.8,2-0.8c1,0,1.5,0.4,2,0.8c0.5,0.4,0.9,0.7,1.8,0.7s1.3-0.4,1.8-0.7c0.5-0.4,1-0.8,2-0.8s1.5,0.4,2,0.8
				c0.5,0.4,0.9,0.7,1.8,0.7c0.9,0,1.3-0.4,1.8-0.7c0.5-0.4,1-0.8,2-0.8s1.5,0.4,2,0.8c0.5,0.4,0.9,0.7,1.8,0.7
				c0.9,0,1.3-0.4,1.8-0.7c0.5-0.4,1-0.8,2-0.8c1,0,1.5,0.4,2,0.8c0.5,0.4,0.9,0.7,1.8,0.7c0.9,0,1.3-0.4,1.8-0.7
				c0.5-0.4,1-0.8,2-0.8c1,0,1.5,0.4,2,0.8c0.5,0.4,0.9,0.7,1.8,0.7c0.9,0,1.3-0.4,1.8-0.7c0.5-0.4,1-0.8,2-0.8v0.4
				c-0.9,0-1.3,0.4-1.8,0.7C249.5,66.7,249,67.1,247.9,67.1z"/>
		</g>
	</g>
</g>
</svg>
